<svg id="visual" viewBox="0 0 960 540" width="960" height="540" xmlns="http://www.w3.org/2000/svg" xmlns:xlink="http://www.w3.org/1999/xlink" version="1.1"><rect x="0" y="0" width="960" height="540" fill="#FFFFFF"></rect><path d="M0 156L22.8 161.2C45.7 166.3 91.3 176.7 137 172.5C182.7 168.3 228.3 149.7 274 151.5C319.7 153.3 365.3 175.7 411.2 175.2C457 174.7 503 151.3 548.8 136.3C594.7 121.3 640.3 114.7 686 112.8C731.7 111 777.3 114 823 117.2C868.7 120.3 914.3 123.7 937.2 125.3L960 127L960 0L937.2 0C914.3 0 868.7 0 823 0C777.3 0 731.7 0 686 0C640.3 0 594.7 0 548.8 0C503 0 457 0 411.2 0C365.3 0 319.7 0 274 0C228.3 0 182.7 0 137 0C91.3 0 45.7 0 22.8 0L0 0Z" fill="#0066FF" stroke-linecap="round" stroke-linejoin="miter"></path></svg>